<svg xmlns="http://www.w3.org/2000/svg" width="55" height="23" viewBox="0 0 49 49" fill="none">
  <g clip-path="url(#clip0_205_110)">
    <path d="M24.5 46.1125C12.6875 46.1125 2.975 36.3125 2.975 24.5C2.975 22.05 3.4125 19.6875 4.2 17.4125L16.8 41.9125C16.975 42.2625 17.15 42.525 17.5875 42.525C18.025 42.525 18.2 42.2625 18.375 41.9125L24.2375 28.875C24.325 28.7 24.4125 28.6125 24.5 28.6125C24.675 28.6125 24.675 28.7875 24.7625 28.875L30.7125 41.9125C30.8875 42.2625 31.0625 42.525 31.5 42.525C31.9375 42.525 32.1125 42.2625 32.2875 41.9125L44.8875 17.4125C45.675 19.6 46.1125 21.9625 46.1125 24.5C46.025 36.3125 36.3125 46.1125 24.5 46.1125ZM24.5 18.9C24.325 18.9 24.325 18.725 24.2375 18.6375L17.5 4.1125C19.6875 3.325 22.05 2.8875 24.5 2.8875C26.95 2.8875 29.3125 3.325 31.5 4.1125L24.7625 18.6375C24.675 18.725 24.675 18.9 24.5 18.9ZM17.4125 34.65C17.2375 34.65 17.2375 34.475 17.15 34.3875L6.125 13.2125C8.05 10.0625 10.85 7.4375 14.0875 5.6L21.875 22.4C22.05 22.75 22.225 22.8375 22.4875 22.8375H26.5125C26.775 22.8375 26.95 22.75 27.125 22.4L34.825 5.6C38.0625 7.4375 40.8625 10.0625 42.7875 13.2125L31.85 34.3875C31.7625 34.5625 31.675 34.65 31.5875 34.65C31.4125 34.65 31.4125 34.475 31.325 34.3875L27.125 25.1125C26.95 24.7625 26.775 24.675 26.5125 24.675H22.4875C22.225 24.675 22.05 24.7625 21.875 25.1125L17.675 34.3875C17.5875 34.475 17.5875 34.65 17.4125 34.65ZM24.5 49C38.0625 49 49 38.0625 49 24.5C49 10.9375 38.0625 0 24.5 0C10.9375 0 0 10.9375 0 24.5C0 38.0625 10.9375 49 24.5 49Z" fill="#0F0F0F"/>
  </g>
  <defs>
    <clipPath id="clip0_205_110">
      <rect width="49" height="49" fill="white"/>
    </clipPath>
  </defs>
</svg>