<svg xmlns="http://www.w3.org/2000/svg" width="50" height="22" viewBox="0 0 59 39" fill="none">
  <path d="M42.6658 1.91675C39.0022 0.704111 34.4608 0 29.5378 0C24.6149 0 20.0735 0.704111 16.4099 1.91675C6.67845 5.12437 0 11.7743 0 19.4413C0 30.2377 13.2043 39 29.4997 39C45.7951 39 58.9994 30.2377 58.9994 19.4413C59.0757 11.7743 52.3972 5.12437 42.6658 1.91675ZM29.5378 30.6289C27.0954 30.6289 25.111 25.7392 24.9965 19.5587C26.4467 19.676 27.9732 19.7543 29.5378 19.7543C31.1025 19.7543 32.5908 19.676 34.0792 19.5587C33.9647 25.7001 31.9802 30.6289 29.5378 30.6289ZM25.3018 14.7081C25.9506 10.3661 27.5915 7.31494 29.5378 7.31494C31.446 7.31494 33.087 10.3661 33.7739 14.7081C32.4382 14.8255 30.988 14.9037 29.5378 14.9037C28.0877 14.9037 26.6756 14.8646 25.3018 14.7081ZM36.3689 14.3952C35.3767 7.58876 32.7053 2.73821 29.5378 2.73821C26.3703 2.73821 23.699 7.58876 22.7067 14.3952C16.7152 13.4173 12.5173 11.2658 12.5173 8.72317C12.5173 5.28084 20.1117 2.50351 29.4997 2.50351C38.8877 2.50351 46.482 5.28084 46.482 8.72317C46.5583 11.2658 42.3605 13.4564 36.3689 14.3952ZM4.35053 18.7372C4.35053 15.4122 5.6099 12.322 7.747 9.66198C7.70884 9.85757 7.70884 10.0532 7.70884 10.2096C7.70884 14.3952 13.8149 17.9157 22.3251 19.2066C22.3251 19.5196 22.3251 19.8325 22.3251 20.1454C22.3251 27.8907 24.4241 34.4624 27.3244 36.7312C14.4255 35.9488 4.35053 28.2036 4.35053 18.7372ZM31.7894 36.7312C34.6898 34.4624 36.7887 27.8907 36.7887 20.1454C36.7887 19.8325 36.7887 19.5196 36.7887 19.2066C45.299 17.9157 51.405 14.3561 51.405 10.2096C51.405 10.014 51.405 9.81845 51.3668 9.66198C53.5421 12.322 54.7633 15.4514 54.7633 18.7372C54.7633 28.2036 44.6502 35.9488 31.7894 36.7312Z" fill="#0F0F0F"/>
</svg>