<svg xmlns="http://www.w3.org/2000/svg" width="45" height="35" viewBox="0 0 77 40" fill="none">
  <g clip-path="url(#clip0_205_105)">
    <path d="M38.5 40C59.7525 40 77 31.0164 77 20C77 8.98361 59.8171 0 38.5 0C17.2475 0 0 8.98361 0 20C0 31.0164 17.1829 40 38.5 40ZM45.7349 30.1639C45.0889 31.6721 43.9908 34.8197 41.4715 36.1967C40.6963 36.5902 39.7919 36.7869 38.8876 36.7869C38.6938 36.7869 38.5646 36.7869 38.5 36.7869C31.9757 36.8525 25.5159 35.9344 19.25 34.0984L19.0562 34.0328C18.5394 33.8361 18.281 33.6393 18.281 33.3115C18.281 33.1803 18.3456 33.0492 18.3456 32.9836C18.4102 32.8525 18.4748 32.7869 18.5394 32.7213L18.8624 32.3934C20.0898 31.2787 23.9656 28.459 31.2651 25.7049C34.2366 24.459 37.2727 23.541 40.3733 22.7541C42.3758 22.2951 49.6107 21.1803 45.7349 30.1639ZM65.2433 10.0328C65.3079 9.90164 65.3725 9.77049 65.5017 9.70492C65.6309 9.63934 65.7601 9.57377 65.8893 9.57377C66.1477 9.57377 66.4706 9.63934 66.6644 9.83607C71.1862 12.6557 73.8993 16.1967 73.8993 20C73.8993 26.8852 65.1787 32.8525 52.6468 35.4098C51.8716 35.6066 51.2903 35.541 51.1611 35.4098C50.9673 35.2787 50.9673 35.082 51.1611 34.8197C51.2257 34.6229 51.3549 34.4918 51.4841 34.3607C58.2668 26.2295 63.4992 14.2295 64.9203 10.7541C65.0495 10.4262 65.1141 10.1639 65.2433 10.0328ZM31.3943 9.77049C32.0403 8.26229 33.1384 5.04918 35.6577 3.7377C36.4329 3.34426 37.3372 3.14754 38.2416 3.14754C38.4354 3.14754 38.5646 3.14754 38.6292 3.14754C45.1535 3.08197 51.6133 4 57.8792 5.83607L58.073 5.90164C58.5898 6.09836 58.8482 6.29508 58.8482 6.62295C58.8482 6.7541 58.7836 6.88525 58.7836 6.95082C58.719 7.08197 58.6544 7.14754 58.5898 7.21311L58.1376 7.60656C56.9102 8.72131 53.099 11.541 45.7995 14.3607C42.828 15.6066 39.7919 16.5902 36.6913 17.3115C34.818 17.7049 27.5831 18.8197 31.3943 9.77049ZM24.4178 4.59016C25.2575 4.45902 25.7743 4.45902 25.9681 4.59016C26.0327 4.65574 26.0327 4.78689 26.0327 4.91803C26.0327 5.04918 25.9681 5.11475 25.9681 5.2459C25.8389 5.44262 25.7743 5.57377 25.6451 5.70492C18.7978 13.8361 13.5654 25.8361 12.1443 29.3115C12.0151 29.5738 11.9505 29.7705 11.8213 29.9672C11.7567 30.0984 11.6921 30.2295 11.5629 30.2951C11.4337 30.3607 11.3045 30.4262 11.1753 30.4262C10.9169 30.4262 10.594 30.3607 10.4002 30.1639C5.87836 27.3443 3.16527 23.8033 3.16527 20C3.16527 13.1148 11.8859 7.21311 24.4178 4.59016Z" fill="#0F0F0F"/>
  </g>
  <defs>
    <clipPath id="clip0_205_105">
      <rect width="77" height="40" fill="white"/>
    </clipPath>
  </defs>
</svg>